<svg width="1200" height="640" viewBox="0 0 1200 640" fill="none" xmlns="http://www.w3.org/2000/svg" role="img" aria-label="DailyProof analytics overview">
  <defs>
    <linearGradient id="analyticsBg" x1="0" y1="0" x2="1200" y2="640">
      <stop stop-color="#f7fbff"/>
      <stop offset="1" stop-color="#eef8ff"/>
    </linearGradient>
    <filter id="cardShadow" x="-20%" y="-20%" width="140%" height="140%">
      <feDropShadow dx="0" dy="20" stdDeviation="24" flood-color="#0f172a" flood-opacity="0.11"/>
    </filter>
  </defs>
  <rect width="1200" height="640" rx="34" fill="url(#analyticsBg)"/>
  <text x="80" y="86" fill="#0f172a" font-family="Arial, sans-serif" font-size="38" font-weight="900">统计洞察中心</text>
  <text x="80" y="122" fill="#64748b" font-family="Arial, sans-serif" font-size="18">按日期、周/月对比、异常检测和错因画像，把复盘变成可执行的下一步。</text>
  <rect x="80" y="166" width="640" height="300" rx="26" fill="#ffffff" stroke="#dbeafe" filter="url(#cardShadow)"/>
  <text x="116" y="212" fill="#0f172a" font-family="Arial, sans-serif" font-size="26" font-weight="900">日趋势</text>
  <text x="596" y="212" fill="#64748b" font-family="Arial, sans-serif" font-size="16">题量 / 正确率 / 用时</text>
  <line x1="122" y1="396" x2="670" y2="396" stroke="#cbd5e1"/>
  <line x1="122" y1="334" x2="670" y2="334" stroke="#e2e8f0" stroke-dasharray="6 6"/>
  <line x1="122" y1="272" x2="670" y2="272" stroke="#e2e8f0" stroke-dasharray="6 6"/>
  <rect x="156" y="304" width="18" height="92" rx="9" fill="#6366f1"/>
  <rect x="184" y="328" width="18" height="68" rx="9" fill="#ec4899"/>
  <rect x="212" y="286" width="18" height="110" rx="9" fill="#22d3ee"/>
  <rect x="286" y="268" width="18" height="128" rx="9" fill="#6366f1"/>
  <rect x="314" y="312" width="18" height="84" rx="9" fill="#ec4899"/>
  <rect x="342" y="292" width="18" height="104" rx="9" fill="#22d3ee"/>
  <rect x="416" y="246" width="18" height="150" rx="9" fill="#6366f1"/>
  <rect x="444" y="280" width="18" height="116" rx="9" fill="#ec4899"/>
  <rect x="472" y="260" width="18" height="136" rx="9" fill="#22d3ee"/>
  <rect x="546" y="224" width="18" height="172" rx="9" fill="#6366f1"/>
  <rect x="574" y="300" width="18" height="96" rx="9" fill="#ec4899"/>
  <rect x="602" y="250" width="18" height="146" rx="9" fill="#22d3ee"/>
  <text x="156" y="428" fill="#64748b" font-family="Arial, sans-serif" font-size="14">06/06</text>
  <text x="286" y="428" fill="#64748b" font-family="Arial, sans-serif" font-size="14">06/07</text>
  <text x="416" y="428" fill="#64748b" font-family="Arial, sans-serif" font-size="14">06/08</text>
  <text x="546" y="428" fill="#64748b" font-family="Arial, sans-serif" font-size="14">06/09</text>
  <rect x="760" y="166" width="360" height="138" rx="24" fill="#ffffff" stroke="#dbeafe" filter="url(#cardShadow)"/>
  <text x="792" y="208" fill="#0f172a" font-family="Arial, sans-serif" font-size="24" font-weight="900">本周 vs 上周</text>
  <text x="792" y="248" fill="#16a34a" font-family="Arial, sans-serif" font-size="34" font-weight="900">+12.4%</text>
  <text x="928" y="248" fill="#64748b" font-family="Arial, sans-serif" font-size="16">正确率提升</text>
  <rect x="760" y="328" width="360" height="230" rx="24" fill="#ffffff" stroke="#dbeafe" filter="url(#cardShadow)"/>
  <text x="792" y="370" fill="#0f172a" font-family="Arial, sans-serif" font-size="24" font-weight="900">错因画像</text>
  <circle cx="894" cy="450" r="66" fill="#eef2ff"/>
  <path d="M894 384 A66 66 0 0 1 954 423 L894 450 Z" fill="#6366f1"/>
  <path d="M954 423 A66 66 0 0 1 886 516 L894 450 Z" fill="#22d3ee"/>
  <path d="M886 516 A66 66 0 0 1 834 410 L894 450 Z" fill="#ec4899"/>
  <circle cx="894" cy="450" r="34" fill="#ffffff"/>
  <rect x="990" y="410" width="88" height="14" rx="7" fill="#6366f1"/>
  <rect x="990" y="444" width="68" height="14" rx="7" fill="#22d3ee"/>
  <rect x="990" y="478" width="112" height="14" rx="7" fill="#ec4899"/>
  <rect x="80" y="500" width="640" height="58" rx="18" fill="#f8fafc" stroke="#e2e8f0"/>
  <text x="116" y="536" fill="#0f172a" font-family="Arial, sans-serif" font-size="19" font-weight="800">趋势提醒：数量关系用时连续 3 次高于目标，建议下一次限时 15-25 分钟。</text>
</svg>
