<svg xmlns="http://www.w3.org/2000/svg" viewBox="0 0 512 512" role="img" aria-label="PolicyQuest">
  <rect width="512" height="512" rx="112" fill="url(#bg)"/>
  <circle cx="364" cy="148" r="78" fill="#86f2e4" opacity=".32"/>
  <path d="M152 372V140h115c31 0 59 6 82 19 23 12 41 29 54 51 13 21 19 46 19 75 0 28-6 53-19 74-13 21-31 38-54 50-23 12-51 18-82 18h-48v-64h43c27 0 48-7 62-20 14-14 21-33 21-58 0-26-7-45-21-59-14-14-35-21-62-21h-39v167h-71Z" fill="#ffffff"/>
  <path d="M160 372h118" stroke="#86f2e4" stroke-width="28" stroke-linecap="round"/>
  <defs>
    <linearGradient id="bg" x1="70" x2="450" y1="76" y2="440" gradientUnits="userSpaceOnUse">
      <stop stop-color="#0066ff"/>
      <stop offset=".55" stop-color="#2788ff"/>
      <stop offset="1" stop-color="#00bcd4"/>
    </linearGradient>
  </defs>
</svg>
